G04 Layer: BottomLayer*
G04 EasyEDA Pro v1.8.39.fb3963, 2022-11-20 08:12:23*
G04 Gerber Generator version 0.3*
G04 Scale: 100 percent, Rotated: No, Reflected: No*
G04 Dimensions in millimeters*
G04 Leading zeros omitted, absolute positions, 3 integers and 3 decimals*
%FSLAX33Y33*%
%MOMM*%
%ADD999C,0.2032*%
%ADD10C,0.254*%
%ADD11O,1.524X0.508*%
%ADD12C,1.6002*%
%ADD13C,0.610001*%
%ADD14C,0.3895*%
%ADD15C,0.381*%
G75*


G04 Copper Start*
G36*
G01X358Y358D02*
G01X358Y3285D01*
G03X1200Y2922I842J796D01*
G03X2358Y4080I0J1158D01*
G03X1784Y5080I-1158J0D01*
G03X2358Y6080I-584J1000D01*
G03X1200Y7238I-1158J0D01*
G03X358Y6876I0J-1158D01*
G01Y7784D01*
G03X1076Y7428I842J796D01*
G01X1833Y7171D01*
G01X2855Y6149D01*
G01Y4807D01*
G01X2830Y4600D01*
G03X2740Y4267I574J-333D01*
G03X3404Y3604I663J0D01*
G03X4067Y4267I0J663D01*
G03X3977Y4600I-663J0D01*
G01X3952Y4807D01*
G01Y6376D01*
G03X3792Y6764I-549J0D01*
G01X2609Y7947D01*
G01X2391Y8588D01*
G01X2502Y8951D01*
G01X3626D01*
G01X3833Y8926D01*
G03X4166Y8836I333J574D01*
G03X4498Y8926I0J663D01*
G01X4706Y8951D01*
G01X9831D01*
G01X10581Y8201D01*
G01X10562Y8209D01*
G01X10300Y8471D01*
G03X9957Y8613I-343J-343D01*
G01X9261D01*
G01X9055Y8679D01*
G03X8687Y8791I-368J-551D01*
G03X8024Y8128I0J-663D01*
G03X8037Y7995I663J0D01*
G01X7797D01*
G03X7712Y7984I0J-358D01*
G01X7423Y7914D01*
G01X7137Y8032D01*
G03X7001Y8059I-136J-331D01*
G01X6461D01*
G03X6103Y7701I0J-358D01*
G01Y7135D01*
G03X6136Y6985I358J0D01*
G01X6133Y6978D01*
G01X5891Y6424D01*
G01X5455Y5989D01*
G03X5182Y6048I-274J-604D01*
G03X4518Y5385I0J-663D01*
G03X5182Y4722I663J0D01*
G03X5598Y4868I0J663D01*
G01X5675Y4920D01*
G03X5880Y5042I-138J465D01*
G01X6585Y5747D01*
G01X6750Y5911D01*
G01X7001D01*
G03X7359Y6269I0J358D01*
G01Y6835D01*
G03X7355Y6892I-358J0D01*
G01X7380Y6902D01*
G01X7438Y6871D01*
G01Y6333D01*
G03X7797Y5975I358J0D01*
G01X8348D01*
G03X8706Y6333I0J358D01*
G01Y6885D01*
G03X8692Y6985I-358J0D01*
G03X8706Y7085I-344J100D01*
G01Y7465D01*
G03X9055Y7577I-19J663D01*
G01X9261Y7643D01*
G01X9756D01*
G01X9876Y7523D01*
G01X10103Y6981D01*
G03X10090Y6885I345J-97D01*
G01Y6333D01*
G03X10448Y5975I358J0D01*
G01X10999D01*
G03X11358Y6333I0J358D01*
G01Y6885D01*
G03X11343Y6985I-358J0D01*
G03X11358Y7085I-344J100D01*
G01Y7424D01*
G01X11676Y7106D01*
G01X11805Y6942D01*
G03X12446Y6449I641J170D01*
G03X12764Y6530I0J663D01*
G01X12994Y6508D01*
G03X13092Y6500I98J604D01*
G01X14108D01*
G03X14720Y7112I0J612D01*
G03X14584Y7497I-612J0D01*
G01X14882Y7378D01*
G01Y2782D01*
G01X14584Y2663D01*
G03X14720Y3048I-476J385D01*
G03X14108Y3660I-612J0D01*
G01X13092D01*
G03X12480Y3048I0J-612D01*
G03X13092Y2436I612J0D01*
G01X14015D01*
G01X11932Y1603D01*
G03X11866Y1568I133J-333D01*
G01X10052Y358D01*
G01X358D01*
G37*
%LPC*%
G36*
G01X8137Y1195D02*
G03X8331Y1166I194J634D01*
G03X8525Y1195I0J663D01*
G01X8615D01*
G03X8890Y1323I0J358D01*
G03X9165Y1195I275J229D01*
G01X10365D01*
G03X10723Y1553I0J358D01*
G01Y2953D01*
G03X10365Y3311I-358J0D01*
G01X9165D01*
G03X8890Y3182I0J-358D01*
G03X8615Y3311I-275J-229D01*
G01X7415D01*
G03X7057Y2953I0J-358D01*
G01Y1553D01*
G03X7415Y1195I358J0D01*
G01X8137D01*
G37*
G36*
G01X7057Y3753D02*
G03X7415Y3395I358J0D01*
G01X8615D01*
G03X8890Y3523I0J358D01*
G03X9165Y3395I275J229D01*
G01X10365D01*
G03X10723Y3753I0J358D01*
G01Y5153D01*
G03X10365Y5511I-358J0D01*
G01X9643D01*
G03X9449Y5540I-194J-634D01*
G03X9255Y5511I0J-663D01*
G01X9165D01*
G03X8890Y5382I0J-358D01*
G03X8615Y5511I-275J-229D01*
G01X7415D01*
G03X7057Y5153I0J-358D01*
G01Y3753D01*
G37*
G36*
G01X11783Y4445D02*
G03X12446Y3782I663J0D01*
G03X12803Y3886I0J663D01*
G01X12887Y3868D01*
G03X13092Y3833I205J577D01*
G01X14108D01*
G03X14720Y4445I0J612D01*
G03X14108Y5057I-612J0D01*
G01X13092D01*
G03X12887Y5022I0J-612D01*
G01X12803Y5004D01*
G03X12637Y5080I-357J-559D01*
G03X12803Y5156I-191J635D01*
G01X12887Y5138D01*
G03X13092Y5103I205J577D01*
G01X14108D01*
G03X14720Y5715I0J612D01*
G03X14108Y6327I-612J0D01*
G01X13092D01*
G03X12887Y6292I0J-612D01*
G01X12803Y6274D01*
G03X12446Y6378I-357J-559D01*
G03X11783Y5715I0J-663D01*
G03X12255Y5080I663J0D01*
G03X11783Y4445I191J-635D01*
G37*
%LPD*%
G54D999*
G01X358Y358D02*
G01X358Y3285D01*
G03X1200Y2922I842J796D01*
G03X2358Y4080I0J1158D01*
G03X1784Y5080I-1158J0D01*
G03X2358Y6080I-584J1000D01*
G03X1200Y7238I-1158J0D01*
G03X358Y6876I0J-1158D01*
G01Y7784D01*
G03X1076Y7428I842J796D01*
G01X1833Y7171D01*
G01X2855Y6149D01*
G01Y4807D01*
G01X2830Y4600D01*
G03X2740Y4267I574J-333D01*
G03X3404Y3604I663J0D01*
G03X4067Y4267I0J663D01*
G03X3977Y4600I-663J0D01*
G01X3952Y4807D01*
G01Y6376D01*
G03X3792Y6764I-549J0D01*
G01X2609Y7947D01*
G01X2391Y8588D01*
G01X2502Y8951D01*
G01X3626D01*
G01X3833Y8926D01*
G03X4166Y8836I333J574D01*
G03X4498Y8926I0J663D01*
G01X4706Y8951D01*
G01X9831D01*
G01X10581Y8201D01*
G01X10562Y8209D01*
G01X10300Y8471D01*
G03X9957Y8613I-343J-343D01*
G01X9261D01*
G01X9055Y8679D01*
G03X8687Y8791I-368J-551D01*
G03X8024Y8128I0J-663D01*
G03X8037Y7995I663J0D01*
G01X7797D01*
G03X7712Y7984I0J-358D01*
G01X7423Y7914D01*
G01X7137Y8032D01*
G03X7001Y8059I-136J-331D01*
G01X6461D01*
G03X6103Y7701I0J-358D01*
G01Y7135D01*
G03X6136Y6985I358J0D01*
G01X6133Y6978D01*
G01X5891Y6424D01*
G01X5455Y5989D01*
G03X5182Y6048I-274J-604D01*
G03X4518Y5385I0J-663D01*
G03X5182Y4722I663J0D01*
G03X5598Y4868I0J663D01*
G01X5675Y4920D01*
G03X5880Y5042I-138J465D01*
G01X6585Y5747D01*
G01X6750Y5911D01*
G01X7001D01*
G03X7359Y6269I0J358D01*
G01Y6835D01*
G03X7355Y6892I-358J0D01*
G01X7380Y6902D01*
G01X7438Y6871D01*
G01Y6333D01*
G03X7797Y5975I358J0D01*
G01X8348D01*
G03X8706Y6333I0J358D01*
G01Y6885D01*
G03X8692Y6985I-358J0D01*
G03X8706Y7085I-344J100D01*
G01Y7465D01*
G03X9055Y7577I-19J663D01*
G01X9261Y7643D01*
G01X9756D01*
G01X9876Y7523D01*
G01X10103Y6981D01*
G03X10090Y6885I345J-97D01*
G01Y6333D01*
G03X10448Y5975I358J0D01*
G01X10999D01*
G03X11358Y6333I0J358D01*
G01Y6885D01*
G03X11343Y6985I-358J0D01*
G03X11358Y7085I-344J100D01*
G01Y7424D01*
G01X11676Y7106D01*
G01X11805Y6942D01*
G03X12446Y6449I641J170D01*
G03X12764Y6530I0J663D01*
G01X12994Y6508D01*
G03X13092Y6500I98J604D01*
G01X14108D01*
G03X14720Y7112I0J612D01*
G03X14584Y7497I-612J0D01*
G01X14882Y7378D01*
G01Y2782D01*
G01X14584Y2663D01*
G03X14720Y3048I-476J385D01*
G03X14108Y3660I-612J0D01*
G01X13092D01*
G03X12480Y3048I0J-612D01*
G03X13092Y2436I612J0D01*
G01X14015D01*
G01X11932Y1603D01*
G03X11866Y1568I133J-333D01*
G01X10052Y358D01*
G01X358D01*
G01X8137Y1195D02*
G03X8331Y1166I194J634D01*
G03X8525Y1195I0J663D01*
G01X8615D01*
G03X8890Y1323I0J358D01*
G03X9165Y1195I275J229D01*
G01X10365D01*
G03X10723Y1553I0J358D01*
G01Y2953D01*
G03X10365Y3311I-358J0D01*
G01X9165D01*
G03X8890Y3182I0J-358D01*
G03X8615Y3311I-275J-229D01*
G01X7415D01*
G03X7057Y2953I0J-358D01*
G01Y1553D01*
G03X7415Y1195I358J0D01*
G01X8137D01*
G01X7057Y3753D02*
G03X7415Y3395I358J0D01*
G01X8615D01*
G03X8890Y3523I0J358D01*
G03X9165Y3395I275J229D01*
G01X10365D01*
G03X10723Y3753I0J358D01*
G01Y5153D01*
G03X10365Y5511I-358J0D01*
G01X9643D01*
G03X9449Y5540I-194J-634D01*
G03X9255Y5511I0J-663D01*
G01X9165D01*
G03X8890Y5382I0J-358D01*
G03X8615Y5511I-275J-229D01*
G01X7415D01*
G03X7057Y5153I0J-358D01*
G01Y3753D01*
G01X11783Y4445D02*
G03X12446Y3782I663J0D01*
G03X12803Y3886I0J663D01*
G01X12887Y3868D01*
G03X13092Y3833I205J577D01*
G01X14108D01*
G03X14720Y4445I0J612D01*
G03X14108Y5057I-612J0D01*
G01X13092D01*
G03X12887Y5022I0J-612D01*
G01X12803Y5004D01*
G03X12637Y5080I-357J-559D01*
G03X12803Y5156I-191J635D01*
G01X12887Y5138D01*
G03X13092Y5103I205J577D01*
G01X14108D01*
G03X14720Y5715I0J612D01*
G03X14108Y6327I-612J0D01*
G01X13092D01*
G03X12887Y6292I0J-612D01*
G01X12803Y6274D01*
G03X12446Y6378I-357J-559D01*
G03X11783Y5715I0J-663D01*
G03X12255Y5080I663J0D01*
G03X11783Y4445I191J-635D01*
G54D10*
G01X13600Y3048D02*
G01X12579Y3048D01*
G01X13600Y3048D02*
G01X14621Y3048D01*
G01X13600Y3048D02*
G01X13600Y3561D01*
G01X13600Y3048D02*
G01X13600Y2535D01*
G01X9765Y2253D02*
G01X9765Y1294D01*
G01X9765Y2253D02*
G01X9765Y3212D01*
G01X9765Y2253D02*
G01X10624Y2253D01*
G01X8015Y4453D02*
G01X8015Y3494D01*
G01X8015Y4453D02*
G01X8015Y5412D01*
G01X8015Y4453D02*
G01X7156Y4453D01*
G04 Copper End*

G04 Tear Start*
G36*
G01X12446Y7303D02*
G01X12446Y6922D01*
G01X13092Y6858D01*
G01Y7366D01*
G01X12446Y7303D01*
G37*
G36*
G01X12491Y5842D02*
G01X12491Y5588D01*
G01X13092Y5461D01*
G01Y5969D01*
G01X12491Y5842D01*
G37*
G36*
G01X12491Y4572D02*
G01X12491Y4318D01*
G01X13092Y4191D01*
G01Y4699D01*
G01X12491Y4572D01*
G37*
G36*
G01X12491Y3175D02*
G01X12491Y2921D01*
G01X13092Y2794D01*
G01Y3302D01*
G01X12491Y3175D01*
G37*
G36*
G01X10358Y7906D02*
G01X10179Y7726D01*
G01X10448Y7085D01*
G01X10999Y7637D01*
G01X10358Y7906D01*
G37*
G36*
G01X7416Y7290D02*
G01X7797Y7085D01*
G01Y7637D01*
G01X7416Y7544D01*
G01Y7290D01*
G37*
G36*
G01X7382Y7290D02*
G01X7382Y7544D01*
G01X7001Y7701D01*
G01Y7135D01*
G01X7382Y7290D01*
G37*
G36*
G01X6192Y6219D02*
G01X6332Y6000D01*
G01X6461Y6269D01*
G01Y6835D01*
G01X6192Y6219D01*
G37*
G36*
G01X1999Y8530D02*
G01X2254Y9365D01*
G01X1985Y9634D01*
G01X1150Y9379D01*
G01X1999Y8530D01*
G37*
G36*
G01X1150Y7781D02*
G01X2027Y7484D01*
G01X2296Y7753D01*
G01X1999Y8630D01*
G01X1150Y7781D01*
G37*
G36*
G01X1150Y781D02*
G01X1827Y774D01*
G01X2006Y953D01*
G01X1999Y1630D01*
G01X1150Y781D01*
G37*
G36*
G01X1729Y980D02*
G01X2560Y1453D01*
G01Y1707D01*
G01X1729Y2180D01*
G01Y980D01*
G37*
G36*
G01X12465Y7416D02*
G01X12214Y7613D01*
G01X11945Y7344D01*
G01X12142Y7093D01*
G01X12465Y7416D01*
G37*
G36*
G01X12648Y6883D02*
G01X12965Y6922D01*
G01Y7303D01*
G01X12648Y7341D01*
G01Y6883D01*
G37*
G36*
G01X12648Y5486D02*
G01X12965Y5588D01*
G01Y5842D01*
G01X12648Y5944D01*
G01Y5486D01*
G37*
G36*
G01X12648Y4216D02*
G01X12965Y4318D01*
G01Y4572D01*
G01X12648Y4674D01*
G01Y4216D01*
G37*
G36*
G01X12142Y3067D02*
G01X11990Y2771D01*
G01X12169Y2592D01*
G01X12465Y2744D01*
G01X12142Y3067D01*
G37*
G36*
G01X12648Y2819D02*
G01X12965Y2921D01*
G01Y3175D01*
G01X12648Y3277D01*
G01Y2819D01*
G37*
G36*
G01X5030Y7893D02*
G01X4878Y7597D01*
G01X5057Y7418D01*
G01X5353Y7570D01*
G01X5030Y7893D01*
G37*
G36*
G01X5383Y5156D02*
G01X5537Y5258D01*
G01Y5512D01*
G01X5383Y5614D01*
G01Y5156D01*
G37*
G36*
G01X3632Y4469D02*
G01X3594Y4786D01*
G01X3213D01*
G01X3175Y4469D01*
G01X3632D01*
G37*
G36*
G01X3964Y9728D02*
G01X3647Y9690D01*
G01Y9309D01*
G01X3964Y9271D01*
G01Y9728D01*
G37*
G36*
G01X4367Y9271D02*
G01X4684Y9309D01*
G01Y9690D01*
G01X4367Y9728D01*
G01Y9271D01*
G37*
G36*
G01X8889Y7899D02*
G01X9205Y8001D01*
G01Y8255D01*
G01X8889Y8357D01*
G01Y7899D01*
G37*
G04 Tear End*

G04 Pad Start*
G54D11*
G01X13600Y7112D03*
G01X13600Y5715D03*
G01X13600Y4445D03*
G01X13600Y3048D03*
G36*
G01X7415Y1553D02*
G01X8615Y1553D01*
G01Y2953D01*
G01X7415D01*
G01Y1553D01*
G37*
G36*
G01X7415Y3753D02*
G01X8615Y3753D01*
G01Y5153D01*
G01X7415D01*
G01Y3753D01*
G37*
G36*
G01X9165Y3753D02*
G01X10365Y3753D01*
G01Y5153D01*
G01X9165D01*
G01Y3753D01*
G37*
G36*
G01X9165Y1553D02*
G01X10365Y1553D01*
G01Y2953D01*
G01X9165D01*
G01Y1553D01*
G37*
G36*
G01X10999Y7085D02*
G01X10999Y7637D01*
G01X10448D01*
G01Y7085D01*
G01X10999D01*
G37*
G36*
G01X8348Y7085D02*
G01X8348Y7637D01*
G01X7797D01*
G01Y7085D01*
G01X8348D01*
G37*
G36*
G01X10999Y6333D02*
G01X10999Y6885D01*
G01X10448D01*
G01Y6333D01*
G01X10999D01*
G37*
G36*
G01X8348Y6333D02*
G01X8348Y6885D01*
G01X7797D01*
G01Y6333D01*
G01X8348D01*
G37*
G36*
G01X6461Y7135D02*
G01X7001Y7135D01*
G01Y7701D01*
G01X6461D01*
G01Y7135D01*
G37*
G36*
G01X6461Y6269D02*
G01X7001Y6269D01*
G01Y6835D01*
G01X6461D01*
G01Y6269D01*
G37*
G04 Pad End*

G04 Via Start*
G54D12*
G01X1200Y8580D03*
G01X1200Y6080D03*
G01X1200Y4080D03*
G01X1200Y1580D03*
G54D13*
G01X12446Y7112D03*
G01X12446Y5715D03*
G01X12446Y4445D03*
G01X12446Y3048D03*
G01X9449Y4877D03*
G01X8331Y1829D03*
G01X5334Y7874D03*
G01X5182Y5385D03*
G01X3404Y4267D03*
G01X4166Y9500D03*
G01X2997Y8687D03*
G01X8687Y8128D03*
G04 Via End*

G04 Track Start*
G54D10*
G01X12441Y5715D02*
G01X13970Y5715D01*
G01X12441Y4445D02*
G01X13970Y4445D01*
G54D15*
G01X1200Y8580D02*
G01X3404Y6376D01*
G01Y4267D01*
G01X4166Y9500D02*
G01X10058Y9500D01*
G01X12446Y7112D01*
G01X12441Y7112D02*
G01X12446Y7112D01*
G01X13970D01*
G54D10*
G01X1200Y1580D02*
G01X1916Y864D01*
G01X12441Y3048D02*
G01X12446Y3048D01*
G01X13970D01*
G01X1200Y1580D02*
G01X4018Y1580D01*
G01X12446Y3048D02*
G01X10262Y864D01*
G01X1916D01*
G54D15*
G01X1200Y8580D02*
G01X2120Y9500D01*
G01X4166D01*
G54D10*
G01X4369Y1930D02*
G01X4018Y1580D01*
G01X4369Y6909D02*
G01X4369Y1930D01*
G01X4369Y6909D02*
G01X5334Y7874D01*
G01X6706Y6527D02*
G01X6731Y6552D01*
G01X8687Y8128D02*
G01X9957Y8128D01*
G01X10724Y7361D01*
G01X5182Y5385D02*
G01X5537Y5385D01*
G01X6679Y6527D01*
G01X6706D01*
G01X8072Y7361D02*
G01X8072Y7371D01*
G01X8026Y7417D01*
G01X6732D01*
G04 Track End*

M02*
