G04 Layer: BottomSolderMaskLayer*
G04 EasyEDA Pro v1.8.39.fb3963, 2022-11-20 08:12:23*
G04 Gerber Generator version 0.3*
G04 Scale: 100 percent, Rotated: No, Reflected: No*
G04 Dimensions in millimeters*
G04 Leading zeros omitted, absolute positions, 3 integers and 3 decimals*
%FSLAX33Y33*%
%MOMM*%
%ADD10O,1.7272X0.7112*%
%ADD11C,1.7018*%
G75*


G04 Pad Start*
G54D10*
G01X13600Y7112D03*
G01X13600Y5715D03*
G01X13600Y4445D03*
G01X13600Y3048D03*
G36*
G01X7415Y1502D02*
G01X8615Y1502D01*
G03X8666Y1553I0J51D01*
G01Y2953D01*
G03X8615Y3004I-51J0D01*
G01X7415D01*
G03X7364Y2953I0J-51D01*
G01Y1553D01*
G03X7415Y1502I51J0D01*
G37*
G36*
G01X7415Y3702D02*
G01X8615Y3702D01*
G03X8666Y3753I0J51D01*
G01Y5153D01*
G03X8615Y5204I-51J0D01*
G01X7415D01*
G03X7364Y5153I0J-51D01*
G01Y3753D01*
G03X7415Y3702I51J0D01*
G37*
G36*
G01X9165Y3702D02*
G01X10365Y3702D01*
G03X10416Y3753I0J51D01*
G01Y5153D01*
G03X10365Y5204I-51J0D01*
G01X9165D01*
G03X9114Y5153I0J-51D01*
G01Y3753D01*
G03X9165Y3702I51J0D01*
G37*
G36*
G01X9165Y1502D02*
G01X10365Y1502D01*
G03X10416Y1553I0J51D01*
G01Y2953D01*
G03X10365Y3004I-51J0D01*
G01X9165D01*
G03X9114Y2953I0J-51D01*
G01Y1553D01*
G03X9165Y1502I51J0D01*
G37*
G36*
G01X11050Y7085D02*
G01X11050Y7637D01*
G03X10999Y7687I-51J0D01*
G01X10448D01*
G03X10397Y7637I0J-51D01*
G01Y7085D01*
G03X10448Y7035I51J0D01*
G01X10999D01*
G03X11050Y7085I0J51D01*
G37*
G36*
G01X8399Y7085D02*
G01X8399Y7637D01*
G03X8348Y7687I-51J0D01*
G01X7797D01*
G03X7746Y7637I0J-51D01*
G01Y7085D01*
G03X7797Y7035I51J0D01*
G01X8348D01*
G03X8399Y7085I0J51D01*
G37*
G36*
G01X11050Y6333D02*
G01X11050Y6885D01*
G03X10999Y6935I-51J0D01*
G01X10448D01*
G03X10397Y6885I0J-51D01*
G01Y6333D01*
G03X10448Y6283I51J0D01*
G01X10999D01*
G03X11050Y6333I0J51D01*
G37*
G36*
G01X8399Y6333D02*
G01X8399Y6885D01*
G03X8348Y6935I-51J0D01*
G01X7797D01*
G03X7746Y6885I0J-51D01*
G01Y6333D01*
G03X7797Y6283I51J0D01*
G01X8348D01*
G03X8399Y6333I0J51D01*
G37*
G36*
G01X6461Y7084D02*
G01X7001Y7084D01*
G03X7052Y7135I0J51D01*
G01Y7701D01*
G03X7001Y7751I-51J0D01*
G01X6461D01*
G03X6410Y7701I0J-51D01*
G01Y7135D01*
G03X6461Y7084I51J0D01*
G37*
G36*
G01X6461Y6219D02*
G01X7001Y6219D01*
G03X7052Y6269I0J51D01*
G01Y6835D01*
G03X7001Y6886I-51J0D01*
G01X6461D01*
G03X6410Y6835I0J-51D01*
G01Y6269D01*
G03X6461Y6219I51J0D01*
G37*
G04 Pad End*

G04 Via Start*
G54D11*
G01X1200Y8580D03*
G01X1200Y6080D03*
G01X1200Y4080D03*
G01X1200Y1580D03*
G04 Via End*

M02*
