G04 Layer: TopPasteMaskLayer*
G04 EasyEDA Pro v1.8.39.fb3963, 2022-11-20 08:12:23*
G04 Gerber Generator version 0.3*
G04 Scale: 100 percent, Rotated: No, Reflected: No*
G04 Dimensions in millimeters*
G04 Leading zeros omitted, absolute positions, 3 integers and 3 decimals*
%FSLAX33Y33*%
%MOMM*%
%ADD10C,0.0254*%
%ADD11O,1.524X0.508*%
%ADD12O,1.62052X0.2794*%
G75*


G04 PolygonModel Start*
G36*
G01X3736Y3229D02*
G01X3736Y3679D01*
G01X3806Y3729D01*
G01X4286D01*
G01X4336Y3679D01*
G01Y3229D01*
G01X4286Y3179D01*
G01X3806D01*
G01X3736Y3229D01*
G37*
G54D10*
G01X3736Y3229D02*
G01X3736Y3679D01*
G01X3806Y3729D01*
G01X4286D01*
G01X4336Y3679D01*
G01Y3229D01*
G01X4286Y3179D01*
G01X3806D01*
G01X3736Y3229D01*
G36*
G01X2776Y3229D02*
G01X2776Y3679D01*
G01X2826Y3729D01*
G01X3306D01*
G01X3376Y3679D01*
G01Y3229D01*
G01X3306Y3179D01*
G01X2826D01*
G01X2776Y3229D01*
G37*
G01X2776Y3229D02*
G01X2776Y3679D01*
G01X2826Y3729D01*
G01X3306D01*
G01X3376Y3679D01*
G01Y3229D01*
G01X3306Y3179D01*
G01X2826D01*
G01X2776Y3229D01*
G36*
G01X3736Y1756D02*
G01X3736Y2206D01*
G01X3806Y2256D01*
G01X4286D01*
G01X4336Y2206D01*
G01Y1756D01*
G01X4286Y1706D01*
G01X3806D01*
G01X3736Y1756D01*
G37*
G01X3736Y1756D02*
G01X3736Y2206D01*
G01X3806Y2256D01*
G01X4286D01*
G01X4336Y2206D01*
G01Y1756D01*
G01X4286Y1706D01*
G01X3806D01*
G01X3736Y1756D01*
G36*
G01X2776Y1756D02*
G01X2776Y2206D01*
G01X2826Y2256D01*
G01X3306D01*
G01X3376Y2206D01*
G01Y1756D01*
G01X3306Y1706D01*
G01X2826D01*
G01X2776Y1756D01*
G37*
G01X2776Y1756D02*
G01X2776Y2206D01*
G01X2826Y2256D01*
G01X3306D01*
G01X3376Y2206D01*
G01Y1756D01*
G01X3306Y1706D01*
G01X2826D01*
G01X2776Y1756D01*
G36*
G01X3736Y639D02*
G01X3736Y1089D01*
G01X3806Y1139D01*
G01X4286D01*
G01X4336Y1089D01*
G01Y639D01*
G01X4286Y589D01*
G01X3806D01*
G01X3736Y639D01*
G37*
G01X3736Y639D02*
G01X3736Y1089D01*
G01X3806Y1139D01*
G01X4286D01*
G01X4336Y1089D01*
G01Y639D01*
G01X4286Y589D01*
G01X3806D01*
G01X3736Y639D01*
G36*
G01X2776Y639D02*
G01X2776Y1089D01*
G01X2826Y1139D01*
G01X3306D01*
G01X3376Y1089D01*
G01Y639D01*
G01X3306Y589D01*
G01X2826D01*
G01X2776Y639D01*
G37*
G01X2776Y639D02*
G01X2776Y1089D01*
G01X2826Y1139D01*
G01X3306D01*
G01X3376Y1089D01*
G01Y639D01*
G01X3306Y589D01*
G01X2826D01*
G01X2776Y639D01*
G36*
G01X2726Y6531D02*
G01X2726Y6981D01*
G01X2776Y7031D01*
G01X3306D01*
G01X3356Y6981D01*
G01Y6531D01*
G01X3306Y6481D01*
G01X2776D01*
G01X2726Y6531D01*
G37*
G01X2726Y6531D02*
G01X2726Y6981D01*
G01X2776Y7031D01*
G01X3306D01*
G01X3356Y6981D01*
G01Y6531D01*
G01X3306Y6481D01*
G01X2776D01*
G01X2726Y6531D01*
G36*
G01X3756Y6531D02*
G01X3756Y6981D01*
G01X3806Y7031D01*
G01X4336D01*
G01X4386Y6981D01*
G01Y6531D01*
G01X4336Y6481D01*
G01X3806D01*
G01X3756Y6531D01*
G37*
G01X3756Y6531D02*
G01X3756Y6981D01*
G01X3806Y7031D01*
G01X4336D01*
G01X4386Y6981D01*
G01Y6531D01*
G01X4336Y6481D01*
G01X3806D01*
G01X3756Y6531D01*
G36*
G01X2726Y7801D02*
G01X2726Y8251D01*
G01X2776Y8301D01*
G01X3306D01*
G01X3356Y8251D01*
G01Y7801D01*
G01X3306Y7751D01*
G01X2776D01*
G01X2726Y7801D01*
G37*
G01X2726Y7801D02*
G01X2726Y8251D01*
G01X2776Y8301D01*
G01X3306D01*
G01X3356Y8251D01*
G01Y7801D01*
G01X3306Y7751D01*
G01X2776D01*
G01X2726Y7801D01*
G36*
G01X3756Y7801D02*
G01X3756Y8251D01*
G01X3806Y8301D01*
G01X4336D01*
G01X4386Y8251D01*
G01Y7801D01*
G01X4336Y7751D01*
G01X3806D01*
G01X3756Y7801D01*
G37*
G01X3756Y7801D02*
G01X3756Y8251D01*
G01X3806Y8301D01*
G01X4336D01*
G01X4386Y8251D01*
G01Y7801D01*
G01X4336Y7751D01*
G01X3806D01*
G01X3756Y7801D01*
G04 PolygonModel End*

G04 Pad Start*
G54D11*
G01X13600Y4445D03*
G01X13600Y3048D03*
G01X13600Y7112D03*
G01X13600Y5715D03*
G54D12*
G01X11001Y6619D03*
G01X11001Y7120D03*
G01X11001Y7620D03*
G01X11001Y8120D03*
G01X11001Y8621D03*
G01X6779Y6619D03*
G01X6779Y7120D03*
G01X6779Y7620D03*
G01X6779Y8120D03*
G01X6779Y8621D03*
G36*
G01X6388Y5331D02*
G01X6388Y5083D01*
G01X7587D01*
G01Y5331D01*
G01X6388D01*
G37*
G36*
G01X6388Y4803D02*
G01X6388Y4554D01*
G01X7587D01*
G01Y4803D01*
G01X6388D01*
G37*
G36*
G01X6388Y4272D02*
G01X6388Y4023D01*
G01X7587D01*
G01Y4272D01*
G01X6388D01*
G37*
G36*
G01X6388Y3741D02*
G01X6388Y3493D01*
G01X7587D01*
G01Y3741D01*
G01X6388D01*
G37*
G36*
G01X6388Y3213D02*
G01X6388Y2964D01*
G01X7587D01*
G01Y3213D01*
G01X6388D01*
G37*
G36*
G01X6388Y2682D02*
G01X6388Y2433D01*
G01X7587D01*
G01Y2682D01*
G01X6388D01*
G37*
G36*
G01X6388Y2151D02*
G01X6388Y1902D01*
G01X7587D01*
G01Y2151D01*
G01X6388D01*
G37*
G36*
G01X6388Y1623D02*
G01X6388Y1374D01*
G01X7587D01*
G01Y1623D01*
G01X6388D01*
G37*
G36*
G01X9990Y1623D02*
G01X9990Y1374D01*
G01X11189D01*
G01Y1623D01*
G01X9990D01*
G37*
G36*
G01X9990Y2151D02*
G01X9990Y1902D01*
G01X11189D01*
G01Y2151D01*
G01X9990D01*
G37*
G36*
G01X9990Y2682D02*
G01X9990Y2433D01*
G01X11189D01*
G01Y2682D01*
G01X9990D01*
G37*
G36*
G01X9990Y3213D02*
G01X9990Y2964D01*
G01X11189D01*
G01Y3213D01*
G01X9990D01*
G37*
G36*
G01X9990Y3741D02*
G01X9990Y3493D01*
G01X11189D01*
G01Y3741D01*
G01X9990D01*
G37*
G36*
G01X9990Y4272D02*
G01X9990Y4023D01*
G01X11189D01*
G01Y4272D01*
G01X9990D01*
G37*
G36*
G01X9990Y4803D02*
G01X9990Y4554D01*
G01X11189D01*
G01Y4803D01*
G01X9990D01*
G37*
G36*
G01X9990Y5331D02*
G01X9990Y5083D01*
G01X11189D01*
G01Y5331D01*
G01X9990D01*
G37*
G04 Pad End*

M02*
