G04 Layer: TopSilkscreenLayer*
G04 EasyEDA Pro v1.8.39.fb3963, 2022-11-20 08:12:23*
G04 Gerber Generator version 0.3*
G04 Scale: 100 percent, Rotated: No, Reflected: No*
G04 Dimensions in millimeters*
G04 Leading zeros omitted, absolute positions, 3 integers and 3 decimals*
%FSLAX33Y33*%
%MOMM*%
%ADD10C,0.1016*%
%ADD11C,0.101999*%
%ADD12C,0.1524*%
%ADD13C,0.254*%
%ADD14C,0.29972*%
G75*


G04 Text Start*
G04 //text: VCC*
G54D10*
G01X12243Y7993D02*
G01X12408Y7562D01*
G01X12573Y7993D02*
G01X12408Y7562D01*
G01X13084Y7892D02*
G01X13063Y7932D01*
G01X13023Y7973D01*
G01X12979Y7993D01*
G01X12898D01*
G01X12857Y7973D01*
G01X12814Y7932D01*
G01X12794Y7892D01*
G01X12774Y7828D01*
G01Y7727D01*
G01X12794Y7663D01*
G01X12814Y7623D01*
G01X12857Y7582D01*
G01X12898Y7562D01*
G01X12979D01*
G01X13023Y7582D01*
G01X13063Y7623D01*
G01X13084Y7663D01*
G01X13594Y7892D02*
G01X13574Y7932D01*
G01X13531Y7973D01*
G01X13490Y7993D01*
G01X13409D01*
G01X13365Y7973D01*
G01X13325Y7932D01*
G01X13305Y7892D01*
G01X13284Y7828D01*
G01Y7727D01*
G01X13305Y7663D01*
G01X13325Y7623D01*
G01X13365Y7582D01*
G01X13409Y7562D01*
G01X13490D01*
G01X13531Y7582D01*
G01X13574Y7623D01*
G01X13594Y7663D01*
G04 //text: D+*
G01X12243Y6723D02*
G01X12243Y6292D01*
G01X12243Y6723D02*
G01X12388Y6723D01*
G01X12449Y6703D01*
G01X12492Y6662D01*
G01X12512Y6622D01*
G01X12532Y6558D01*
G01Y6457D01*
G01X12512Y6393D01*
G01X12492Y6353D01*
G01X12449Y6312D01*
G01X12388Y6292D01*
G01X12243D01*
G01X12918Y6662D02*
G01X12918Y6292D01*
G01X12733Y6477D02*
G01X13104Y6477D01*
G04 //text: D-*
G01X12243Y3929D02*
G01X12243Y3498D01*
G01X12243Y3929D02*
G01X12388Y3929D01*
G01X12449Y3909D01*
G01X12492Y3868D01*
G01X12512Y3828D01*
G01X12532Y3764D01*
G01Y3663D01*
G01X12512Y3599D01*
G01X12492Y3559D01*
G01X12449Y3518D01*
G01X12388Y3498D01*
G01X12243D01*
G01X12733Y3683D02*
G01X13104Y3683D01*
G04 //text: GND*
G01X12553Y2558D02*
G01X12532Y2598D01*
G01X12492Y2639D01*
G01X12449Y2659D01*
G01X12367D01*
G01X12327Y2639D01*
G01X12283Y2598D01*
G01X12263Y2558D01*
G01X12243Y2494D01*
G01Y2393D01*
G01X12263Y2329D01*
G01X12283Y2289D01*
G01X12327Y2248D01*
G01X12367Y2228D01*
G01X12449D01*
G01X12492Y2248D01*
G01X12532Y2289D01*
G01X12553Y2329D01*
G01Y2393D01*
G01X12449Y2393D02*
G01X12553Y2393D01*
G01X12753Y2659D02*
G01X12753Y2228D01*
G01X12753Y2659D02*
G01X13043Y2228D01*
G01X13043Y2659D02*
G01X13043Y2228D01*
G01X13244Y2659D02*
G01X13244Y2228D01*
G01X13244Y2659D02*
G01X13388Y2659D01*
G01X13449Y2639D01*
G01X13490Y2598D01*
G01X13510Y2558D01*
G01X13531Y2494D01*
G01Y2393D01*
G01X13510Y2329D01*
G01X13490Y2289D01*
G01X13449Y2248D01*
G01X13388Y2228D01*
G01X13244D01*
G04 //text: U1*
G01X9398Y9822D02*
G01X9398Y9515D01*
G01X9418Y9451D01*
G01X9459Y9411D01*
G01X9522Y9390D01*
G01X9563D01*
G01X9624Y9411D01*
G01X9667Y9451D01*
G01X9688Y9515D01*
G01Y9822D01*
G01X9888Y9741D02*
G01X9929Y9761D01*
G01X9990Y9822D01*
G01Y9390D01*
G04 //text: U2*
G01X9296Y780D02*
G01X9296Y472D01*
G01X9317Y409D01*
G01X9357Y368D01*
G01X9421Y348D01*
G01X9462D01*
G01X9522Y368D01*
G01X9566Y409D01*
G01X9586Y472D01*
G01Y780D01*
G01X9807Y678D02*
G01X9807Y699D01*
G01X9827Y739D01*
G01X9848Y759D01*
G01X9888Y780D01*
G01X9972D01*
G01X10013Y759D01*
G01X10033Y739D01*
G01X10053Y699D01*
G01Y658D01*
G01X10033Y615D01*
G01X9992Y554D01*
G01X9787Y348D01*
G01X10076D01*
G04 //text: C3*
G01X5136Y3574D02*
G01X5116Y3614D01*
G01X5075Y3655D01*
G01X5032Y3675D01*
G01X4950D01*
G01X4910Y3655D01*
G01X4867Y3614D01*
G01X4846Y3574D01*
G01X4826Y3510D01*
G01Y3409D01*
G01X4846Y3345D01*
G01X4867Y3305D01*
G01X4910Y3264D01*
G01X4950Y3244D01*
G01X5032D01*
G01X5075Y3264D01*
G01X5116Y3305D01*
G01X5136Y3345D01*
G01X5377Y3675D02*
G01X5606Y3675D01*
G01X5481Y3510D01*
G01X5542D01*
G01X5583Y3490D01*
G01X5606Y3470D01*
G01X5626Y3409D01*
G01Y3368D01*
G01X5606Y3305D01*
G01X5563Y3264D01*
G01X5502Y3244D01*
G01X5441D01*
G01X5377Y3264D01*
G01X5357Y3284D01*
G01X5337Y3325D01*
G04 //text: C4*
G01X5136Y2101D02*
G01X5116Y2141D01*
G01X5075Y2182D01*
G01X5032Y2202D01*
G01X4950D01*
G01X4910Y2182D01*
G01X4867Y2141D01*
G01X4846Y2101D01*
G01X4826Y2037D01*
G01Y1935D01*
G01X4846Y1872D01*
G01X4867Y1831D01*
G01X4910Y1791D01*
G01X4950Y1770D01*
G01X5032D01*
G01X5075Y1791D01*
G01X5116Y1831D01*
G01X5136Y1872D01*
G01X5542Y2202D02*
G01X5337Y1915D01*
G01X5646D01*
G01X5542Y2202D02*
G01X5542Y1770D01*
G04 //text: C5*
G01X5136Y983D02*
G01X5116Y1024D01*
G01X5075Y1064D01*
G01X5032Y1085D01*
G01X4950D01*
G01X4910Y1064D01*
G01X4867Y1024D01*
G01X4846Y983D01*
G01X4826Y919D01*
G01Y818D01*
G01X4846Y754D01*
G01X4867Y714D01*
G01X4910Y673D01*
G01X4950Y653D01*
G01X5032D01*
G01X5075Y673D01*
G01X5116Y714D01*
G01X5136Y754D01*
G01X5583Y1085D02*
G01X5377Y1085D01*
G01X5357Y899D01*
G01X5377Y919D01*
G01X5441Y942D01*
G01X5502D01*
G01X5563Y919D01*
G01X5606Y879D01*
G01X5626Y818D01*
G01Y777D01*
G01X5606Y714D01*
G01X5563Y673D01*
G01X5502Y653D01*
G01X5441D01*
G01X5377Y673D01*
G01X5357Y693D01*
G01X5337Y734D01*
G04 //text: C1*
G54D11*
G01X5136Y6876D02*
G01X5116Y6916D01*
G01X5075Y6957D01*
G01X5032Y6977D01*
G01X4950D01*
G01X4910Y6957D01*
G01X4867Y6916D01*
G01X4846Y6876D01*
G01X4826Y6812D01*
G01Y6711D01*
G01X4846Y6650D01*
G01X4867Y6607D01*
G01X4910Y6566D01*
G01X4950Y6546D01*
G01X5032D01*
G01X5075Y6566D01*
G01X5116Y6607D01*
G01X5136Y6650D01*
G01X5337Y6896D02*
G01X5377Y6916D01*
G01X5441Y6977D01*
G01Y6546D01*
G04 //text: C2*
G01X5136Y8146D02*
G01X5116Y8186D01*
G01X5075Y8227D01*
G01X5032Y8247D01*
G01X4950D01*
G01X4910Y8227D01*
G01X4867Y8186D01*
G01X4846Y8146D01*
G01X4826Y8082D01*
G01Y7981D01*
G01X4846Y7920D01*
G01X4867Y7877D01*
G01X4910Y7836D01*
G01X4950Y7816D01*
G01X5032D01*
G01X5075Y7836D01*
G01X5116Y7877D01*
G01X5136Y7920D01*
G01X5357Y8146D02*
G01X5357Y8166D01*
G01X5377Y8207D01*
G01X5398Y8227D01*
G01X5441Y8247D01*
G01X5522D01*
G01X5563Y8227D01*
G01X5583Y8207D01*
G01X5606Y8166D01*
G01Y8125D01*
G01X5583Y8082D01*
G01X5542Y8021D01*
G01X5337Y7816D01*
G01X5626D01*
G04 Text End*

G04 PolygonModel Start*
G54D12*
G01X9962Y6043D02*
G01X7818Y6043D01*
G01X7818Y6043D02*
G01X7818Y9197D01*
G01X7818Y9197D02*
G01X9962Y9197D01*
G01X9962Y9197D02*
G01X9962Y6043D01*
G54D13*
G01X7488Y5603D02*
G01X8288Y5603D01*
G01X10089Y5603D02*
G01X9289Y5603D01*
G01X7488Y1102D02*
G01X7488Y1140D01*
G01X7488Y5603D02*
G01X7488Y5565D01*
G01X10089Y1140D02*
G01X10089Y1102D01*
G01X10089Y5603D02*
G01X10089Y5565D01*
G01X10089Y1102D02*
G01X7488Y1102D01*
G01X8288Y5603D02*
G03X9289Y5603I500J4D01*
G54D12*
G01X2540Y2956D02*
G01X3330Y2956D01*
G01X3330Y3953D02*
G01X2540Y3953D01*
G01X2387Y3801D02*
G01X2387Y3108D01*
G01X4572Y2956D02*
G01X3782Y2956D01*
G01X3782Y3953D02*
G01X4572Y3953D01*
G01X4725Y3801D02*
G01X4725Y3108D01*
G01X2540Y3953D02*
G03X2387Y3801I0J-152D01*
G01X2387Y3108D02*
G03X2540Y2956I152J0D01*
G01X4572Y3953D02*
G02X4725Y3801I0J-152D01*
G01X4725Y3108D02*
G02X4572Y2956I-152J0D01*
G01X2540Y1483D02*
G01X3330Y1483D01*
G01X3330Y2480D02*
G01X2540Y2480D01*
G01X2387Y2327D02*
G01X2387Y1635D01*
G01X4572Y1483D02*
G01X3782Y1483D01*
G01X3782Y2480D02*
G01X4572Y2480D01*
G01X4725Y2327D02*
G01X4725Y1635D01*
G01X2540Y2480D02*
G03X2387Y2327I0J-152D01*
G01X2387Y1635D02*
G03X2540Y1483I152J0D01*
G01X4572Y2480D02*
G02X4725Y2327I0J-152D01*
G01X4725Y1635D02*
G02X4572Y1483I-152J0D01*
G01X2540Y365D02*
G01X3330Y365D01*
G01X3330Y1362D02*
G01X2540Y1362D01*
G01X2387Y1210D02*
G01X2387Y517D01*
G01X4572Y365D02*
G01X3782Y365D01*
G01X3782Y1362D02*
G01X4572Y1362D01*
G01X4725Y1210D02*
G01X4725Y517D01*
G01X2540Y1362D02*
G03X2387Y1210I0J-152D01*
G01X2387Y517D02*
G03X2540Y365I152J0D01*
G01X4572Y1362D02*
G02X4725Y1210I0J-152D01*
G01X4725Y517D02*
G02X4572Y365I-152J0D01*
G01X4572Y6258D02*
G01X3782Y6258D01*
G01X3330Y7255D02*
G01X2540Y7255D01*
G01X2540Y6258D02*
G01X3330Y6258D01*
G01X2387Y7103D02*
G01X2387Y6410D01*
G01X3782Y7255D02*
G01X4572Y7255D01*
G01X4725Y7103D02*
G01X4725Y6410D01*
G01X2540Y7255D02*
G03X2387Y7103I0J-152D01*
G01X2387Y6410D02*
G03X2540Y6258I152J0D01*
G01X4572Y7255D02*
G02X4725Y7103I0J-152D01*
G01X4725Y6410D02*
G02X4572Y6258I-152J0D01*
G01X4572Y7528D02*
G01X3782Y7528D01*
G01X3330Y8525D02*
G01X2540Y8525D01*
G01X2540Y7528D02*
G01X3330Y7528D01*
G01X2387Y8373D02*
G01X2387Y7680D01*
G01X3782Y8525D02*
G01X4572Y8525D01*
G01X4725Y8373D02*
G01X4725Y7680D01*
G01X2540Y8525D02*
G03X2387Y8373I0J-152D01*
G01X2387Y7680D02*
G03X2540Y7528I152J0D01*
G01X4572Y8525D02*
G02X4725Y8373I0J-152D01*
G01X4725Y7680D02*
G02X4572Y7528I-152J0D01*
G04 PolygonModel End*

G04 Circle Start*
G54D14*
G01X9060Y6619D02*
G03X9360Y6619I150J0D01*
G03X9060I-150J0D01*
G01X10851Y6027D02*
G03X11151Y6027I150J0D01*
G03X10851I-150J0D01*
G54D13*
G01X6805Y5672D02*
G03X7054Y5672I124J0D01*
G03X6805I-124J0D01*
G04 Circle End*

M02*
