G04 Layer: TopSolderMaskLayer*
G04 EasyEDA Pro v1.8.39.fb3963, 2022-11-20 08:12:23*
G04 Gerber Generator version 0.3*
G04 Scale: 100 percent, Rotated: No, Reflected: No*
G04 Dimensions in millimeters*
G04 Leading zeros omitted, absolute positions, 3 integers and 3 decimals*
%FSLAX33Y33*%
%MOMM*%
%ADD10O,1.7272X0.7112*%
%ADD11O,1.72212X0.381*%
%ADD12C,1.7018*%
G75*


G04 Pad Start*
G54D10*
G01X13600Y4445D03*
G01X13600Y3048D03*
G01X13600Y7112D03*
G01X13600Y5715D03*
G54D11*
G01X11001Y6619D03*
G01X11001Y7120D03*
G01X11001Y7620D03*
G01X11001Y8120D03*
G01X11001Y8621D03*
G01X6779Y6619D03*
G01X6779Y7120D03*
G01X6779Y7620D03*
G01X6779Y8120D03*
G01X6779Y8621D03*
G36*
G01X6338Y5331D02*
G01X6338Y5083D01*
G03X6388Y5033I50J0D01*
G01X7587D01*
G03X7637Y5083I0J50D01*
G01Y5331D01*
G03X7587Y5381I-50J0D01*
G01X6388D01*
G03X6338Y5331I0J-50D01*
G37*
G36*
G01X6338Y4803D02*
G01X6338Y4554D01*
G03X6388Y4504I50J0D01*
G01X7587D01*
G03X7637Y4554I0J50D01*
G01Y4803D01*
G03X7587Y4853I-50J0D01*
G01X6388D01*
G03X6338Y4803I0J-50D01*
G37*
G36*
G01X6338Y4272D02*
G01X6338Y4023D01*
G03X6388Y3973I50J0D01*
G01X7587D01*
G03X7637Y4023I0J50D01*
G01Y4272D01*
G03X7587Y4322I-50J0D01*
G01X6388D01*
G03X6338Y4272I0J-50D01*
G37*
G36*
G01X6338Y3741D02*
G01X6338Y3493D01*
G03X6388Y3442I50J0D01*
G01X7587D01*
G03X7637Y3493I0J50D01*
G01Y3741D01*
G03X7587Y3791I-50J0D01*
G01X6388D01*
G03X6338Y3741I0J-50D01*
G37*
G36*
G01X6338Y3213D02*
G01X6338Y2964D01*
G03X6388Y2914I50J0D01*
G01X7587D01*
G03X7637Y2964I0J50D01*
G01Y3213D01*
G03X7587Y3263I-50J0D01*
G01X6388D01*
G03X6338Y3213I0J-50D01*
G37*
G36*
G01X6338Y2682D02*
G01X6338Y2433D01*
G03X6388Y2383I50J0D01*
G01X7587D01*
G03X7637Y2433I0J50D01*
G01Y2682D01*
G03X7587Y2732I-50J0D01*
G01X6388D01*
G03X6338Y2682I0J-50D01*
G37*
G36*
G01X6338Y2151D02*
G01X6338Y1902D01*
G03X6388Y1852I50J0D01*
G01X7587D01*
G03X7637Y1902I0J50D01*
G01Y2151D01*
G03X7587Y2201I-50J0D01*
G01X6388D01*
G03X6338Y2151I0J-50D01*
G37*
G36*
G01X6338Y1623D02*
G01X6338Y1374D01*
G03X6388Y1324I50J0D01*
G01X7587D01*
G03X7637Y1374I0J50D01*
G01Y1623D01*
G03X7587Y1673I-50J0D01*
G01X6388D01*
G03X6338Y1623I0J-50D01*
G37*
G36*
G01X9940Y1623D02*
G01X9940Y1374D01*
G03X9990Y1324I50J0D01*
G01X11189D01*
G03X11239Y1374I0J50D01*
G01Y1623D01*
G03X11189Y1673I-50J0D01*
G01X9990D01*
G03X9940Y1623I0J-50D01*
G37*
G36*
G01X9940Y2151D02*
G01X9940Y1902D01*
G03X9990Y1852I50J0D01*
G01X11189D01*
G03X11239Y1902I0J50D01*
G01Y2151D01*
G03X11189Y2201I-50J0D01*
G01X9990D01*
G03X9940Y2151I0J-50D01*
G37*
G36*
G01X9940Y2682D02*
G01X9940Y2433D01*
G03X9990Y2383I50J0D01*
G01X11189D01*
G03X11239Y2433I0J50D01*
G01Y2682D01*
G03X11189Y2732I-50J0D01*
G01X9990D01*
G03X9940Y2682I0J-50D01*
G37*
G36*
G01X9940Y3213D02*
G01X9940Y2964D01*
G03X9990Y2914I50J0D01*
G01X11189D01*
G03X11239Y2964I0J50D01*
G01Y3213D01*
G03X11189Y3263I-50J0D01*
G01X9990D01*
G03X9940Y3213I0J-50D01*
G37*
G36*
G01X9940Y3741D02*
G01X9940Y3493D01*
G03X9990Y3442I50J0D01*
G01X11189D01*
G03X11239Y3493I0J50D01*
G01Y3741D01*
G03X11189Y3791I-50J0D01*
G01X9990D01*
G03X9940Y3741I0J-50D01*
G37*
G36*
G01X9940Y4272D02*
G01X9940Y4023D01*
G03X9990Y3973I50J0D01*
G01X11189D01*
G03X11239Y4023I0J50D01*
G01Y4272D01*
G03X11189Y4322I-50J0D01*
G01X9990D01*
G03X9940Y4272I0J-50D01*
G37*
G36*
G01X9940Y4803D02*
G01X9940Y4554D01*
G03X9990Y4504I50J0D01*
G01X11189D01*
G03X11239Y4554I0J50D01*
G01Y4803D01*
G03X11189Y4853I-50J0D01*
G01X9990D01*
G03X9940Y4803I0J-50D01*
G37*
G36*
G01X9940Y5331D02*
G01X9940Y5083D01*
G03X9990Y5033I50J0D01*
G01X11189D01*
G03X11239Y5083I0J50D01*
G01Y5331D01*
G03X11189Y5381I-50J0D01*
G01X9990D01*
G03X9940Y5331I0J-50D01*
G37*
G36*
G01X3457Y3184D02*
G01X3457Y3724D01*
G03X3406Y3775I-51J0D01*
G01X2616D01*
G03X2565Y3724I0J-51D01*
G01Y3184D01*
G03X2616Y3134I51J0D01*
G01X3406D01*
G03X3457Y3184I0J51D01*
G37*
G36*
G01X4547Y3184D02*
G01X4547Y3724D01*
G03X4496Y3775I-51J0D01*
G01X3706D01*
G03X3655Y3724I0J-51D01*
G01Y3184D01*
G03X3706Y3134I51J0D01*
G01X4496D01*
G03X4547Y3184I0J51D01*
G37*
G36*
G01X3457Y1711D02*
G01X3457Y2251D01*
G03X3406Y2302I-51J0D01*
G01X2616D01*
G03X2565Y2251I0J-51D01*
G01Y1711D01*
G03X2616Y1660I51J0D01*
G01X3406D01*
G03X3457Y1711I0J51D01*
G37*
G36*
G01X4547Y1711D02*
G01X4547Y2251D01*
G03X4496Y2302I-51J0D01*
G01X3706D01*
G03X3655Y2251I0J-51D01*
G01Y1711D01*
G03X3706Y1660I51J0D01*
G01X4496D01*
G03X4547Y1711I0J51D01*
G37*
G36*
G01X3457Y594D02*
G01X3457Y1134D01*
G03X3406Y1184I-51J0D01*
G01X2616D01*
G03X2565Y1134I0J-51D01*
G01Y594D01*
G03X2616Y543I51J0D01*
G01X3406D01*
G03X3457Y594I0J51D01*
G37*
G36*
G01X4547Y594D02*
G01X4547Y1134D01*
G03X4496Y1184I-51J0D01*
G01X3706D01*
G03X3655Y1134I0J-51D01*
G01Y594D01*
G03X3706Y543I51J0D01*
G01X4496D01*
G03X4547Y594I0J51D01*
G37*
G36*
G01X3457Y6486D02*
G01X3457Y7026D01*
G03X3406Y7077I-51J0D01*
G01X2616D01*
G03X2565Y7026I0J-51D01*
G01Y6486D01*
G03X2616Y6436I51J0D01*
G01X3406D01*
G03X3457Y6486I0J51D01*
G37*
G36*
G01X4547Y6486D02*
G01X4547Y7026D01*
G03X4496Y7077I-51J0D01*
G01X3706D01*
G03X3655Y7026I0J-51D01*
G01Y6486D01*
G03X3706Y6436I51J0D01*
G01X4496D01*
G03X4547Y6486I0J51D01*
G37*
G36*
G01X3457Y7756D02*
G01X3457Y8296D01*
G03X3406Y8347I-51J0D01*
G01X2616D01*
G03X2565Y8296I0J-51D01*
G01Y7756D01*
G03X2616Y7706I51J0D01*
G01X3406D01*
G03X3457Y7756I0J51D01*
G37*
G36*
G01X4547Y7756D02*
G01X4547Y8296D01*
G03X4496Y8347I-51J0D01*
G01X3706D01*
G03X3655Y8296I0J-51D01*
G01Y7756D01*
G03X3706Y7706I51J0D01*
G01X4496D01*
G03X4547Y7756I0J51D01*
G37*
G04 Pad End*

G04 Via Start*
G54D12*
G01X1200Y8580D03*
G01X1200Y6080D03*
G01X1200Y4080D03*
G01X1200Y1580D03*
G04 Via End*

M02*
